PathFileType  4	(X/Y/Z) D:\Research_projects\MuscleProsody\BulkSports2Dtrack\RetrackedSports2D\p1_sample60_cam3\p1_sample60_cam3_Sports2D\pose-3d
DataRate	CameraRate	NumFrames	NumMarkers	Units	OrigDataRate	OrigDataStartFrame	OrigNumFrames
60.0	60.0	16	22	m	60.0	0	780
Frame#	Time	Hip			RHip			RKnee			RAnkle			RBigToe			RSmallToe			RHeel			LHip			LKnee			LAnkle			LBigToe			LSmallToe			LHeel			Neck			Head			Nose			RShoulder			RElbow			RWrist			LShoulder			LElbow			LWrist			
		X1	Y1	Z1	X2	Y2	Z2	X3	Y3	Z3	X4	Y4	Z4	X5	Y5	Z5	X6	Y6	Z6	X7	Y7	Z7	X8	Y8	Z8	X9	Y9	Z9	X10	Y10	Z10	X11	Y11	Z11	X12	Y12	Z12	X13	Y13	Z13	X14	Y14	Z14	X15	Y15	Z15	X16	Y16	Z16	X17	Y17	Z17	X18	Y18	Z18	X19	Y19	Z19	X20	Y20	Z20	X21	Y21	Z21	X22	Y22	Z22	

1	0.0000000	0.4792370	0.8083194	0.0301000	0.4004259	0.7835366	0.0301000	0.5722169	0.4442645	0.1290000	0.7643544	0.1491316	0.0230000	0.7175742	-0.0075570	0.2179000	0.6878769	0.0198935	0.1804000	0.8377564	0.1288402	-0.0119000	0.5538380	0.8345865	0.0301000	0.7212984	0.4804346	0.1290000	0.9237182	0.1531605	0.0230000	0.8376836	0.0040590	0.2179000	0.8958215	0.0105516	0.1804000	0.9934512	0.1414190	-0.0119000	0.2509309	1.3945988	0.0008000	0.0568983	1.6365349	0.0655000	0.0599898	1.4471809	0.1076000	0.1864254	1.2540675	-0.0127500	0.2692953	0.9878132	0.0702000	0.2874772	0.7387318	0.1076000	0.4572119	1.3812536	-0.0127500	0.6201181	1.1039608	0.0702000	0.6996781	0.8036698	0.1076000
2	0.0166667	0.4787221	0.8095080	0.0301000	0.4009831	0.7839012	0.0301000	0.5719600	0.4441935	0.1290000	0.7637839	0.1494785	0.0230000	0.7180720	-0.0078926	0.2179000	0.6900424	0.0176533	0.1804000	0.8371924	0.1287761	-0.0119000	0.5534755	0.8346587	0.0301000	0.7210353	0.4806868	0.1290000	0.9225837	0.1528050	0.0230000	0.8369566	0.0039310	0.2179000	0.8958821	0.0104189	0.1804000	0.9934848	0.1420543	-0.0119000	0.2501392	1.3945898	0.0008000	0.0569650	1.6372163	0.0655000	0.0599682	1.4485057	0.1076000	0.1864051	1.2539342	-0.0127500	0.2688530	0.9876838	0.0702000	0.2865490	0.7376207	0.1076000	0.4563189	1.3809381	-0.0127500	0.6205559	1.1043837	0.0702000	0.6996101	0.8041109	0.1076000
3	0.0333333	0.4783031	0.8106095	0.0301000	0.4015806	0.7842278	0.0301000	0.5718055	0.4441122	0.1290000	0.7632845	0.1498080	0.0230000	0.7185161	-0.0082064	0.2179000	0.6920134	0.0155915	0.1804000	0.8366059	0.1287188	-0.0119000	0.5532004	0.8347278	0.0301000	0.7208312	0.4808921	0.1290000	0.9215361	0.1525096	0.0230000	0.8363032	0.0038053	0.2179000	0.8959347	0.0103292	0.1804000	0.9934654	0.1426639	-0.0119000	0.2494199	1.3946037	0.0008000	0.0570418	1.6378467	0.0655000	0.0599640	1.4496951	0.1076000	0.1864002	1.2537991	-0.0127500	0.2684302	0.9875446	0.0702000	0.2856471	0.7365593	0.1076000	0.4554936	1.3806500	-0.0127500	0.6209863	1.1047648	0.0702000	0.6995565	0.8045187	0.1076000
4	0.0500000	0.4780313	0.8115597	0.0301000	0.4022431	0.7844829	0.0301000	0.5718152	0.4440160	0.1290000	0.7628967	0.1501099	0.0230000	0.7188762	-0.0084792	0.2179000	0.6936710	0.0138177	0.1804000	0.8359992	0.1286724	-0.0119000	0.5530684	0.8347833	0.0301000	0.7207179	0.4810220	0.1290000	0.9206201	0.1523144	0.0230000	0.8357575	0.0036894	0.2179000	0.8959703	0.0103042	0.1804000	0.9933622	0.1432352	-0.0119000	0.2488158	1.3946580	0.0008000	0.0571339	1.6384016	0.0655000	0.0599889	1.4506713	0.1076000	0.1864192	1.2536630	-0.0127500	0.2680480	0.9873870	0.0702000	0.2848024	0.7355861	0.1076000	0.4547747	1.3804185	-0.0127500	0.6214089	1.1050739	0.0702000	0.6995216	0.8048670	0.1076000
5	0.0666667	0.4779225	0.8123228	0.0301000	0.4029781	0.7846435	0.0301000	0.5720151	0.4438968	0.1290000	0.7626318	0.1503784	0.0230000	0.7191429	-0.0086980	0.2179000	0.6949742	0.0123706	0.1804000	0.8353795	0.1286342	-0.0119000	0.5530972	0.8347978	0.0301000	0.7207137	0.4810644	0.1290000	0.9198510	0.1522310	0.0230000	0.8353284	0.0035889	0.2179000	0.8959835	0.0103508	0.1804000	0.9931672	0.1437579	-0.0119000	0.2483347	1.3947618	0.0008000	0.0572408	1.6388676	0.0655000	0.0600491	1.4514071	0.1076000	0.1864644	1.2535292	-0.0127500	0.2677217	0.9872169	0.0702000	0.2840412	0.7347232	0.1076000	0.4541777	1.3802589	-0.0127500	0.6218249	1.1053049	0.0702000	0.6995082	0.8051435	0.1076000
6	0.0833333	0.4779658	0.8128835	0.0301000	0.4037809	0.7846926	0.0301000	0.5724124	0.4437384	0.1290000	0.7624893	0.1506085	0.0230000	0.7193189	-0.0088612	0.2179000	0.6959305	0.0112456	0.1804000	0.8347546	0.1285964	-0.0119000	0.5532830	0.8347383	0.0301000	0.7208295	0.4810125	0.1290000	0.9192277	0.1522455	0.0230000	0.8350156	0.0035026	0.2179000	0.8959763	0.0104571	0.1804000	0.9928876	0.1442187	-0.0119000	0.2479631	1.3949190	0.0008000	0.0573578	1.6392334	0.0655000	0.0601441	1.4519066	0.1076000	0.1865333	1.2534001	-0.0127500	0.2674609	0.9870495	0.0702000	0.2833809	0.7339789	0.1076000	0.4537113	1.3801745	-0.0127500	0.6222354	1.1054635	0.0702000	0.6995182	0.8053500	0.1076000
7	0.1000000	0.4781401	0.8132462	0.0301000	0.4046412	0.7846287	0.0301000	0.5730014	0.4435291	0.1290000	0.7624672	0.1507961	0.0230000	0.7194103	-0.0089753	0.2179000	0.6965686	0.0104261	0.1804000	0.8341349	0.1285498	-0.0119000	0.5536144	0.8345908	0.0301000	0.7210696	0.4808635	0.1290000	0.9187434	0.1523300	0.0230000	0.8348220	0.0034250	0.2179000	0.8959590	0.0105974	0.1804000	0.9925428	0.1446003	-0.0119000	0.2476841	1.3951282	0.0008000	0.0574788	1.6394862	0.0655000	0.0602676	1.4521841	0.1076000	0.1866212	1.2532727	-0.0127500	0.2672682	0.9869000	0.0702000	0.2828302	0.7333516	0.1076000	0.4533841	1.3801602	-0.0127500	0.6226399	1.1055567	0.0702000	0.6995554	0.8054964	0.1076000
8	0.1166667	0.4784222	0.8134391	0.0301000	0.4055432	0.7844751	0.0301000	0.5737599	0.4432706	0.1290000	0.7625577	0.1509427	0.0230000	0.7194297	-0.0090453	0.2179000	0.6969390	0.0098879	0.1804000	0.8335364	0.1284920	-0.0119000	0.5540717	0.8343693	0.0301000	0.7214300	0.4806260	0.1290000	0.9183830	0.1524511	0.0230000	0.8347480	0.0033546	0.2179000	0.8959440	0.0107454	0.1804000	0.9921608	0.1448919	-0.0119000	0.2474817	1.3953809	0.0008000	0.0576006	1.6396183	0.0655000	0.0604102	1.4522679	0.1076000	0.1867225	1.2531412	-0.0127500	0.2671407	0.9867786	0.0702000	0.2823937	0.7328330	0.1076000	0.4531959	1.3802044	-0.0127500	0.6230342	1.1055951	0.0702000	0.6996261	0.8056001	0.1076000
9	0.1333333	0.4787895	0.8135086	0.0301000	0.4064640	0.7842733	0.0301000	0.5746492	0.4429739	0.1290000	0.7627426	0.1510530	0.0230000	0.7194025	-0.0090716	0.2179000	0.6971120	0.0095946	0.1804000	0.8329759	0.1284290	-0.0119000	0.5546248	0.8341034	0.0301000	0.7218958	0.4803207	0.1290000	0.9181212	0.1525779	0.0230000	0.8347854	0.0032960	0.2179000	0.8959401	0.0108856	0.1804000	0.9917674	0.1450950	-0.0119000	0.2473385	1.3956643	0.0008000	0.0577231	1.6396338	0.0655000	0.0605619	1.4522044	0.1076000	0.1868304	1.2530011	-0.0127500	0.2670732	0.9866887	0.0702000	0.2820708	0.7324095	0.1076000	0.4531318	1.3802928	-0.0127500	0.6234060	1.1055999	0.0702000	0.6997364	0.8056862	0.1076000
10	0.1500000	0.4792223	0.8134995	0.0301000	0.4073832	0.7840636	0.0301000	0.5756211	0.4426521	0.1290000	0.7630005	0.1511282	0.0230000	0.7193608	-0.0090566	0.2179000	0.6971494	0.0095071	0.1804000	0.8324646	0.1283711	-0.0119000	0.5552432	0.8338249	0.0301000	0.7224423	0.4799736	0.1290000	0.9179322	0.1526891	0.0230000	0.8349267	0.0032541	0.2179000	0.8959584	0.0110147	0.1804000	0.9913758	0.1452170	-0.0119000	0.2472380	1.3959681	0.0008000	0.0578426	1.6395501	0.0655000	0.0607114	1.4520433	0.1076000	0.1869358	1.2528498	-0.0127500	0.2670592	0.9866278	0.0702000	0.2818554	0.7320661	0.1076000	0.4531668	1.3804129	-0.0127500	0.6237374	1.1055988	0.0702000	0.6998914	0.8057821	0.1076000
11	0.1666667	0.4797028	0.8134412	0.0301000	0.4082889	0.7838738	0.0301000	0.5766292	0.4423196	0.1290000	0.7633154	0.1511642	0.0230000	0.7193311	-0.0090110	0.2179000	0.6970882	0.0095890	0.1804000	0.8320111	0.1283261	-0.0119000	0.5559070	0.8335640	0.0301000	0.7230395	0.4796092	0.1290000	0.9177981	0.1527771	0.0230000	0.8351687	0.0032289	0.2179000	0.8960160	0.0111332	0.1804000	0.9909855	0.1452653	-0.0119000	0.2471689	1.3962896	0.0008000	0.0579502	1.6393935	0.0655000	0.0608481	1.4518245	0.1076000	0.1870291	1.2526875	-0.0127500	0.2670924	0.9865859	0.0702000	0.2817409	0.7317882	0.1076000	0.4532754	1.3805576	-0.0127500	0.6240137	1.1056156	0.0702000	0.7000922	0.8059087	0.1076000
12	0.1833333	0.4802119	0.8133537	0.0301000	0.4091735	0.7837208	0.0301000	0.5776348	0.4419899	0.1290000	0.7636758	0.1511586	0.0230000	0.7193257	-0.0089537	0.2179000	0.6969588	0.0097964	0.1804000	0.8316316	0.1282977	-0.0119000	0.5566058	0.8333452	0.0301000	0.7236590	0.4792485	0.1290000	0.9177041	0.1528439	0.0230000	0.8354993	0.0032177	0.2179000	0.8961255	0.0112374	0.1804000	0.9905920	0.1452522	-0.0119000	0.2471230	1.3966320	0.0008000	0.0580391	1.6391933	0.0655000	0.0609648	1.4515837	0.1076000	0.1871005	1.2525171	-0.0127500	0.2671696	0.9865476	0.0702000	0.2817230	0.7315621	0.1076000	0.4534362	1.3807241	-0.0127500	0.6242312	1.1056620	0.0702000	0.7003313	0.8060785	0.1076000
13	0.2000000	0.4807339	0.8132600	0.0301000	0.4100242	0.7836176	0.0301000	0.5786030	0.4416760	0.1290000	0.7640706	0.1511185	0.0230000	0.7193418	-0.0089056	0.2179000	0.6968026	0.0100739	0.1804000	0.8313505	0.1282871	-0.0119000	0.5573316	0.8331884	0.0301000	0.7242777	0.4789094	0.1290000	0.9176340	0.1528928	0.0230000	0.8358916	0.0032171	0.2179000	0.8962846	0.0113195	0.1804000	0.9901970	0.1451970	-0.0119000	0.2470938	1.3969993	0.0008000	0.0581124	1.6389756	0.0655000	0.0610612	1.4513577	0.1076000	0.1871419	1.2523441	-0.0127500	0.2672911	0.9864962	0.0702000	0.2818004	0.7313728	0.1076000	0.4536343	1.3809111	-0.0127500	0.6243975	1.1057377	0.0702000	0.7005951	0.8062981	0.1076000
14	0.2166667	0.4812596	0.8131875	0.0301000	0.4108226	0.7835791	0.0301000	0.5795002	0.4413995	0.1290000	0.7644918	0.1510598	0.0230000	0.7193656	-0.0088806	0.2179000	0.6966592	0.0103714	0.1804000	0.8311914	0.1282916	-0.0119000	0.5580780	0.8331181	0.0301000	0.7248741	0.4786120	0.1290000	0.9175786	0.1529291	0.0230000	0.8363181	0.0032206	0.2179000	0.8964816	0.0113707	0.1804000	0.9898151	0.1451202	-0.0119000	0.2470808	1.3973904	0.0008000	0.0581808	1.6387576	0.0655000	0.0611416	1.4511765	0.1076000	0.1871469	1.2521751	-0.0127500	0.2674559	0.9864199	0.0702000	0.2819720	0.7312016	0.1076000	0.4538653	1.3811157	-0.0127500	0.6245259	1.1058323	0.0702000	0.7008747	0.8065699	0.1076000
15	0.2333333	0.4817838	0.8131608	0.0301000	0.4115501	0.7836208	0.0301000	0.5802958	0.4411896	0.1290000	0.7649353	0.1510019	0.0230000	0.7193827	-0.0088827	0.2179000	0.6965467	0.0106593	0.1804000	0.8311666	0.1283049	-0.0119000	0.5588386	0.8331617	0.0301000	0.7254270	0.4783799	0.1290000	0.9175418	0.1529636	0.0230000	0.8367568	0.0032191	0.2179000	0.8967040	0.0113869	0.1804000	0.9894715	0.1450400	-0.0119000	0.2470904	1.3977979	0.0008000	0.0582547	1.6385483	0.0655000	0.0612118	1.4510544	0.1076000	0.1871098	1.2520132	-0.0127500	0.2676574	0.9863105	0.0702000	0.2822329	0.7310260	0.1076000	0.4541346	1.3813303	-0.0127500	0.6246329	1.1059317	0.0702000	0.7011690	0.8068944	0.1076000
16	0.2500000	0.4823008	0.8131976	0.0301000	0.4121934	0.7837509	0.0301000	0.5809648	0.4410645	0.1290000	0.7653915	0.1509642	0.0230000	0.7193878	-0.0089079	0.2179000	0.6964660	0.0109169	0.1804000	0.8312699	0.1283241	-0.0119000	0.5596017	0.8333305	0.0301000	0.7259223	0.4782307	0.1290000	0.9175325	0.1530097	0.0230000	0.8371836	0.0032066	0.2179000	0.8969340	0.0113710	0.1804000	0.9891939	0.1449737	-0.0119000	0.2471277	1.3982097	0.0008000	0.0583447	1.6383561	0.0655000	0.0612794	1.4509972	0.1076000	0.1870284	1.2518528	-0.0127500	0.2678826	0.9861625	0.0702000	0.2825728	0.7308238	0.1076000	0.4544469	1.3815451	-0.0127500	0.6247360	1.1060321	0.0702000	0.7014784	0.8072761	0.1076000
